<svg xmlns="http://www.w3.org/2000/svg" viewBox="0 0 48 63.21"><title>my-logo</title><g id="a2732aa4-1d90-4fb5-90ac-2fd3f0b6873f" data-name="Layer 5"><path d="M43.16,0,30.52,29.21l-13.16.14-1-4.7h13l-1.52-7.19H21.34l-.81-4h6.55L25.5,6h-10L10.8,0H0L7.5,9.5l8,38h5l-3,7L1,42.5V60l5.78,2.31a12.42,12.42,0,0,0,9,.12,19.26,19.26,0,0,0,2.54-1.26,15.64,15.64,0,0,0,6.51-7.36L48,0Z" fill="#111"/><rect x="31.13" y="49.82" width="11.09" height="11.09" transform="translate(49.89 -9.72) rotate(45)" fill="#111"/></g></svg>