<svg id="a26687a8-b594-413a-b838-c6cdb03a10c1" data-name="Layer 1" xmlns="http://www.w3.org/2000/svg" viewBox="0 0 377.96 417.77"><title>myLogo</title><path d="M278.11,327.13q-27,11.63-60.8,11.62-37.74,0-67.69-16.88a122.22,122.22,0,0,1-47-46.82q-17.07-30-17.06-67.7c0-25.16,5.69-46,17.06-66a122.31,122.31,0,0,1,47-46.82q29.94-16.87,67.69-16.88,33.77,0,60.8,11.62a117.59,117.59,0,0,1,45.19,33.75h0L378,72.13a186.77,186.77,0,0,0-71.85-53.66Q263.12,0,209.46,0q-60,0-107.61,26.83a194.3,194.3,0,0,0-74.73,74.44Q0,148.88,0,208.88T27.12,316.5a194.3,194.3,0,0,0,74.73,74.44q47.6,26.83,107.61,26.83,53.67,0,96.65-18.47A186.58,186.58,0,0,0,378,345.64l-55.3-51.53A117.36,117.36,0,0,1,278.11,327.13Z"/><path d="M247.24,226.34v6.6a14.55,14.55,0,0,1-4.87,11A42.91,42.91,0,0,1,231,251a55,55,0,0,1-21.9,4.18,48.75,48.75,0,0,1-24.37-6.07,44.09,44.09,0,0,1-16.93-16.86,48.34,48.34,0,0,1-6.14-24.38,46.11,46.11,0,0,1,6.14-23.75,43.86,43.86,0,0,1,11-12.93q12.83-10,30.27-10A54.92,54.92,0,0,1,231,165.4a43.17,43.17,0,0,1,11.4,7.12,14.55,14.55,0,0,1,4.87,11v42.84Z"/></svg>